# xmcd
#
# Track frame offsets:
#	150
#	17542
#	36212
#	53782
#	68275
#	87182
#	103742
#	119867
#	135315
#	150670
#
# Disc length: 2273 seconds
#
# Revision: 4
# Processed by: cddbd v1.5.1PL0 Copyright (c) Steve Scherf et al.
# Submitted via: audiograbber 1.83.01
#
DISCID=7808df0a
DTITLE=Ty Herndon - Living In A Moment
DYEAR=1996
DGENRE=Country
TTITLE0=Living In A Moment
TTITLE1=Returning The Faith
TTITLE2=She Wants To Be Wanted Again
TTITLE3=Before There Was You
TTITLE4=Don't Tell Mama
TTITLE5=Loved Too Much
TTITLE6=Her Heart Is Only Human
TTITLE7=Love Don't Work That Way
TTITLE8=I Have To Surrender
TTITLE9=I Know How The River Feels
EXTD=
EXTT0=
EXTT1=
EXTT2=
EXTT3=
EXTT4=
EXTT5=
EXTT6=
EXTT7=
EXTT8=
EXTT9=
PLAYORDER=
